<?xml version="1.0" encoding="UTF-8" standalone="no"?><!DOCTYPE svg PUBLIC "-//W3C//DTD SVG 1.1//EN" "http://www.w3.org/Graphics/SVG/1.1/DTD/svg11.dtd"><svg width="100%" height="100%" viewBox="0 0 2500 2500" version="1.1" xmlns="http://www.w3.org/2000/svg" xmlns:xlink="http://www.w3.org/1999/xlink" xml:space="preserve" xmlns:serif="http://www.serif.com/" style="fill-rule:evenodd;clip-rule:evenodd;stroke-linejoin:round;stroke-miterlimit:2;"><g><g id="Artboard1"><rect x="-0.004" y="0.009" width="2500" height="2500" style="fill:#3e72ff;fill-opacity:0;"/><g><g><path d="M1251.03,1449.1c32.054,0.047 267.168,923.25 227.507,950.377c-61.183,41.852 -409.88,56.179 -457.382,-9.778c-36.717,-50.985 177.79,-940.683 229.875,-940.599Z"/></g><g id="Old-Curves" serif:id="Old Curves"><g id="Low"><path d="M1399.69,1341.71c73.306,-11.588 348.416,-16.285 521.529,343.925c160.035,333 -115.903,503.2 -146.012,530.849c-36.401,33.426 32.233,-228.608 -7.626,-339.972c-19.514,-54.515 -102.396,189.963 -123.397,148.542c-20.996,-41.425 16.228,-305.774 3.496,-391.121c-12.464,-83.597 -55.616,169.377 -77.181,125.164c-21.602,-44.291 -25.621,-173.295 -176.49,-376.425c-22.311,-30.039 -16.085,-37.523 5.681,-40.962Z"/></g><g id="High"><path d="M1426.62,1057.44c-10.855,-21.078 69.675,-349.05 285.828,-519.531c337.241,-265.991 700.398,65.121 744.3,276.265c6.529,31.415 -216.345,-106.315 -239.208,-114.984c-39.45,-14.959 -83.498,-59.483 -217.596,-28.835c-41.037,9.38 134.55,118.733 170.959,151.372c36.405,32.639 -158.95,11.688 -178.378,10.253c-19.424,-1.43 -212.327,-54.46 -228.968,-40.41c-16.638,14.05 122.587,78.763 123.684,95.222c0.743,11.169 -124.028,30.414 -234.515,82.213c-106.847,50.086 -217.991,104.191 -226.106,88.435Z"/></g><g id="Med"><path d="M1433.72,1201.74c10.156,-33.008 408.829,-320.693 746.95,-116.561c369.416,223.032 123.294,830.545 90.145,805.223c-17.328,-13.232 -3.257,-342.494 -122.203,-512.412c-17.03,-24.326 -5.185,315.629 -34.468,286.376c-64.285,-64.219 -78.471,-217.935 -115.325,-318.527c-36.857,-100.596 -48.818,-132.287 -58.206,-121.293c-9.385,10.994 11.822,199.559 2.107,198.418c-46.676,-5.482 -176.968,-204.55 -215.531,-249.595c-20.311,-23.73 69.182,163.51 57.325,148.15c-41.398,-53.621 -361.26,-85.749 -350.794,-119.779Z"/></g><g><path d="M1315.1,991.784c103.892,-475.578 449.012,-760.162 686.584,-833.993c10.749,-3.339 19.064,-8.787 21.92,-10.803c15.124,-10.669 -15.396,-27.393 -41.418,-40.084c-128.04,-62.441 -389.386,-49.112 -464.069,23.018c-14.71,14.207 -23.753,85.608 -37.792,129.775c-14.765,46.446 -9.306,-135.123 -56.071,-84.761c-29.289,31.551 -113.539,117.594 -106.756,231.866c0.885,14.94 36.158,148.377 37.584,163.036c3.936,40.42 -61.801,-118.839 -64.337,-72.827c-17.033,308.817 9.893,387.669 -0.706,497.488c-2.421,25.105 16.866,34.793 25.061,-2.715Z"/></g><g id="Low1" serif:id="Low"><path d="M1100.3,1341.71c-73.306,-11.588 -348.416,-16.285 -521.529,343.925c-160.035,333 115.903,503.2 146.012,530.849c36.401,33.426 -32.233,-228.608 7.626,-339.972c19.514,-54.515 102.396,189.963 123.397,148.542c20.996,-41.425 -16.228,-305.774 -3.496,-391.121c12.464,-83.597 55.616,169.377 77.181,125.164c21.602,-44.291 25.621,-173.295 176.49,-376.425c22.311,-30.039 16.085,-37.523 -5.681,-40.962Z"/></g><g id="High1" serif:id="High"><path d="M1073.37,1057.44c10.855,-21.078 -69.675,-349.05 -285.828,-519.531c-337.242,-265.991 -700.399,65.121 -744.301,276.265c-6.529,31.415 216.346,-106.315 239.209,-114.984c39.45,-14.959 83.498,-59.483 217.595,-28.835c41.037,9.38 -134.55,118.733 -170.958,151.372c-36.405,32.639 158.95,11.688 178.378,10.253c19.423,-1.43 212.327,-54.46 228.968,-40.41c16.638,14.05 -122.588,78.763 -123.684,95.222c-0.744,11.169 124.028,30.414 234.515,82.213c106.846,50.086 217.991,104.191 226.106,88.435Z"/></g><g id="Med1" serif:id="Med"><path d="M1066.27,1201.74c-10.156,-33.008 -408.829,-320.693 -746.95,-116.561c-369.416,223.032 -123.294,830.545 -90.145,805.223c17.328,-13.232 3.257,-342.494 122.203,-512.412c17.03,-24.326 5.185,315.629 34.468,286.376c64.285,-64.219 78.471,-217.935 115.325,-318.527c36.857,-100.596 48.818,-132.287 58.206,-121.293c9.385,10.994 -11.822,199.559 -2.107,198.418c46.676,-5.482 176.968,-204.55 215.531,-249.595c20.311,-23.73 -69.182,163.51 -57.325,148.15c41.398,-53.621 361.26,-85.749 350.794,-119.779Z"/></g><g><path d="M1184.9,991.739c-103.778,-476.658 -448.842,-761.786 -686.404,-835.704c-10.749,-3.344 -19.063,-8.802 -21.919,-10.822c-15.121,-10.688 15.404,-27.462 41.43,-40.193c128.06,-62.633 389.413,-49.368 464.081,22.905c14.707,14.235 23.733,85.801 37.761,130.066c14.755,46.55 9.34,-135.444 56.095,-84.98c29.282,31.615 113.514,117.829 106.702,232.372c-0.889,14.975 -36.196,148.739 -37.626,163.433c-3.945,40.516 61.833,-119.141 64.358,-73.022c16.957,309.537 -9.99,388.584 0.583,498.657c2.415,25.163 -16.875,34.881 -25.061,-2.712Z"/></g></g></g></g></g></svg>