<?xml version="1.0" encoding="UTF-8" standalone="no"?>
<!DOCTYPE svg PUBLIC "-//W3C//DTD SVG 1.1//EN" "http://www.w3.org/Graphics/SVG/1.1/DTD/svg11.dtd">
<svg width="100%" height="100%" viewBox="0 0 2500 2500" version="1.1" xmlns="http://www.w3.org/2000/svg" xmlns:xlink="http://www.w3.org/1999/xlink" xml:space="preserve" xmlns:serif="http://www.serif.com/" style="fill-rule:evenodd;clip-rule:evenodd;stroke-linejoin:round;stroke-miterlimit:2;">
    <g transform="matrix(4.16667,0,0,4.16667,-1456.04,0)">
        <g id="Artboard1" transform="matrix(1.28618,0,0,1.28618,-347.22,1096.89)">
            <rect x="541.657" y="-852.826" width="466.497" height="466.497" style="fill:rgb(62,114,255);fill-opacity:0;"/>
            <g transform="matrix(2.05294,0,0,0.927216,343.023,-1118.4)">
                <g transform="matrix(0.562125,0,0,0.72904,-103.563,173.354)">
                    <path d="M558.648,555.1C563.831,555.113 601.848,809.957 595.435,817.445C585.542,828.998 529.159,832.953 521.478,814.746C515.541,800.672 550.226,555.077 558.648,555.1Z" style="fill:rgb(14,174,154);"/>
                </g>
                <g id="Old-Curves" serif:id="Old Curves" transform="matrix(0.863171,0,0,0.863171,32.9345,85.0829)">
                    <g id="Low" transform="matrix(-0.405684,0.0719628,0.0296292,0.985316,406.608,-19.5012)">
                        <path d="M495.986,537.774C476.86,536.429 405.749,540.511 367.245,628.557C331.65,709.952 405.82,744.808 414.069,750.748C424.042,757.929 401.817,697.549 410.194,670.586C414.295,657.387 439.897,713.366 444.607,703.221C449.316,693.075 435.161,631.558 436.981,611.23C438.762,591.319 454.252,650.047 459.06,639.234C463.876,628.402 462.696,597.963 498.157,547.308C503.401,539.817 501.665,538.173 495.986,537.774Z" style="fill:rgb(14,174,154);"/>
                    </g>
                    <g id="High" transform="matrix(-0.406755,0.00656143,0.00270153,0.987919,426.943,-8.54337)">
                        <path d="M501.789,490.973C504.566,485.98 483.205,408.721 426.982,368.861C339.263,306.67 245.771,385.433 234.737,435.336C233.096,442.761 290.576,409.875 296.481,407.79C306.67,404.192 318.003,393.609 352.765,400.611C363.403,402.754 318.12,428.862 308.746,436.627C299.373,444.392 349.912,439.112 354.939,438.74C359.965,438.369 409.819,425.523 414.149,428.81C418.478,432.097 382.538,447.608 382.28,451.494C382.105,454.131 414.435,458.458 443.118,470.492C470.856,482.128 499.713,494.705 501.789,490.973Z" style="fill:rgb(14,174,154);"/>
                    </g>
                    <g id="Med" transform="matrix(-0.406078,0.0573614,0.0236174,0.986274,413.667,-23.6792)">
                        <path d="M494.824,515.809C491.747,508.185 384.772,446.4 300.185,499.575C207.769,557.673 279.701,697.101 287.921,690.637C292.218,687.259 284.07,609.898 312.482,568.078C316.55,562.091 318.147,642.361 325.314,635.029C341.048,618.933 342.608,582.505 350.754,558.252C358.901,533.998 361.558,526.352 364.135,528.801C366.711,531.25 363.814,575.994 366.309,575.579C378.297,573.586 409.242,524.728 418.591,513.536C423.515,507.64 402.952,553.098 405.806,549.301C415.77,536.046 497.995,523.669 494.824,515.809Z" style="fill:rgb(14,174,154);"/>
                    </g>
                    <g transform="matrix(0.410835,-0.140018,0.0538114,1.13033,-30.8269,25.0101)">
                        <path d="M532.516,454.766C571.363,361.483 665.975,314.503 727.858,306.94C730.658,306.598 732.9,305.752 733.674,305.432C737.772,303.739 730.519,299.391 724.293,296.002C693.659,279.328 627.388,273.868 606.634,286.175C602.546,288.599 598.367,302.809 593.652,311.335C588.693,320.301 594.897,283.618 581.763,292.379C573.537,297.868 550,312.7 548.673,336.106C548.499,339.166 553.848,367.352 553.818,370.372C553.736,378.699 541.39,344.32 539.527,353.58C527.021,415.729 531.716,432.575 526.123,454.534C524.845,459.554 529.452,462.123 532.516,454.766Z" style="fill:rgb(14,174,154);"/>
                    </g>
                    <g id="Low1" serif:id="Low" transform="matrix(0.405684,0.0719628,-0.0296292,0.985316,4.52285,-19.5012)">
                        <path d="M495.986,537.774C476.86,536.429 405.749,540.511 367.245,628.557C331.65,709.952 405.82,744.808 414.069,750.748C424.042,757.929 401.817,697.549 410.194,670.586C414.295,657.387 439.897,713.366 444.607,703.221C449.316,693.075 435.161,631.558 436.981,611.23C438.762,591.319 454.252,650.047 459.06,639.234C463.876,628.402 462.696,597.963 498.157,547.308C503.401,539.817 501.665,538.173 495.986,537.774Z" style="fill:rgb(14,174,154);"/>
                    </g>
                    <g id="High1" serif:id="High" transform="matrix(0.406755,0.00656143,-0.00270153,0.987919,-15.8125,-8.54337)">
                        <path d="M501.789,490.973C504.566,485.98 483.205,408.721 426.982,368.861C339.263,306.67 245.771,385.433 234.737,435.336C233.096,442.761 290.576,409.875 296.481,407.79C306.67,404.192 318.003,393.609 352.765,400.611C363.403,402.754 318.12,428.862 308.746,436.627C299.373,444.392 349.912,439.112 354.939,438.74C359.965,438.369 409.819,425.523 414.149,428.81C418.478,432.097 382.538,447.608 382.28,451.494C382.105,454.131 414.435,458.458 443.118,470.492C470.856,482.128 499.713,494.705 501.789,490.973Z" style="fill:rgb(14,174,154);"/>
                    </g>
                    <g id="Med1" serif:id="Med" transform="matrix(0.406078,0.0573614,-0.0236174,0.986274,-2.53668,-23.6792)">
                        <path d="M494.824,515.809C491.747,508.185 384.772,446.4 300.185,499.575C207.769,557.673 279.701,697.101 287.921,690.637C292.218,687.259 284.07,609.898 312.482,568.078C316.55,562.091 318.147,642.361 325.314,635.029C341.048,618.933 342.608,582.505 350.754,558.252C358.901,533.998 361.558,526.352 364.135,528.801C366.711,531.25 363.814,575.994 366.309,575.579C378.297,573.586 409.242,524.728 418.591,513.536C423.515,507.64 402.952,553.098 405.806,549.301C415.77,536.046 497.995,523.669 494.824,515.809Z" style="fill:rgb(14,174,154);"/>
                    </g>
                    <g transform="matrix(-0.410835,-0.140018,-0.0539397,1.13303,442.017,23.7718)">
                        <path d="M532.516,454.766C571.363,361.483 665.975,314.503 727.858,306.94C730.658,306.598 732.9,305.752 733.674,305.432C737.772,303.739 730.519,299.391 724.293,296.002C693.659,279.328 627.388,273.868 606.634,286.175C602.546,288.599 598.367,302.809 593.652,311.335C588.693,320.301 594.897,283.618 581.763,292.379C573.537,297.868 550,312.7 548.673,336.106C548.499,339.166 553.848,367.352 553.818,370.372C553.736,378.699 541.39,344.32 539.527,353.58C527.021,415.729 531.716,432.575 526.123,454.534C524.845,459.554 529.452,462.123 532.516,454.766Z" style="fill:rgb(14,174,154);"/>
                    </g>
                </g>
            </g>
        </g>
    </g>
</svg>
